<?xml version="1.0" standalone="no"?>
<!DOCTYPE svg PUBLIC "-//W3C//DTD SVG 1.1//EN" "http://www.w3.org/Graphics/SVG/1.1/DTD/svg11.dtd" >
<svg xmlns="http://www.w3.org/2000/svg">
<metadata>
Created by FontForge 20120731 at Mon Jun 13 17:53:38 2016
 By admin
</metadata>
<defs>
<font id="iconfont" horiz-adv-x="1024" >
  <font-face 
    font-family="iconfont"
    font-weight="500"
    font-stretch="normal"
    units-per-em="1024"
    panose-1="2 0 6 3 0 0 0 0 0 0"
    ascent="896"
    descent="-128"
    x-height="792"
    bbox="34 -170 984.333 835"
    underline-thickness="50"
    underline-position="-100"
    unicode-range="U+0078-E642"
  />
<missing-glyph horiz-adv-x="374" 
d="M34 0v682h272v-682h-272zM68 34h204v614h-204v-614z" />
    <glyph glyph-name=".notdef" horiz-adv-x="374" 
d="M34 0v682h272v-682h-272zM68 34h204v614h-204v-614z" />
    <glyph glyph-name=".null" horiz-adv-x="0" 
 />
    <glyph glyph-name="nonmarkingreturn" horiz-adv-x="341" 
 />
    <glyph glyph-name="x" unicode="x" horiz-adv-x="1001" 
d="M281 543q-27 -1 -53 -1h-83q-18 0 -36.5 -6t-32.5 -18.5t-23 -32t-9 -45.5v-76h912v41q0 16 -0.5 30t-0.5 18q0 13 -5 29t-17 29.5t-31.5 22.5t-49.5 9h-133v-97h-438v97zM955 310v-52q0 -23 0.5 -52t0.5 -58t-10.5 -47.5t-26 -30t-33 -16t-31.5 -4.5q-14 -1 -29.5 -0.5
t-29.5 0.5h-32l-45 128h-439l-44 -128h-29h-34q-20 0 -45 1q-25 0 -41 9.5t-25.5 23t-13.5 29.5t-4 30v167h911zM163 247q-12 0 -21 -8.5t-9 -21.5t9 -21.5t21 -8.5q13 0 22 8.5t9 21.5t-9 21.5t-22 8.5zM316 123q-8 -26 -14 -48q-5 -19 -10.5 -37t-7.5 -25t-3 -15t1 -14.5
t9.5 -10.5t21.5 -4h37h67h81h80h64h36q23 0 34 12t2 38q-5 13 -9.5 30.5t-9.5 34.5q-5 19 -11 39h-368zM336 498v228q0 11 2.5 23t10 21.5t20.5 15.5t34 6h188q31 0 51.5 -14.5t20.5 -52.5v-227h-327z" />
    <glyph glyph-name="uniE600" unicode="&#xe600;" 
d="M513 470q50 -50 118 -89h-235q67 40 117 89zM638 267h-250v-68h250v68zM960 386q0 -91 -35.5 -174t-95.5 -143t-143 -95.5t-174 -35.5t-174 35.5t-143 95.5t-95.5 143t-35.5 174t35.5 174t95.5 143t143 95.5t174 35.5t174 -35.5t143 -95.5t95.5 -143t35.5 -174zM579 643
q-17 -64 -62 -120q18 -13 34 -26q20 26 37 57h179v36h-162q10 25 18 53h-44zM644 547l-32 -19q27 -34 47 -67l34 21q-21 32 -49 65zM255 487q15 -14 30 -30q42 44 74 97h169v36h-150q13 25 24 53h-45q-36 -91 -102 -156zM402 547l-29 -18q23 -32 41 -62l33 22q-21 29 -45 58
zM678 303h-331v-173h41v33h250v-32h40v172zM773 368q-157 43 -243 140h-37q-77 -91 -242 -152q12 -17 23 -36q63 25 115 56v-29h247v31q51 -29 112 -50q10 18 25 40z" />
    <glyph glyph-name="uniE601" unicode="&#xe601;" 
d="M512 27q147 0 253 106t106 253t-106 253.5t-253 106.5t-253.5 -106.5t-106.5 -253.5t106.5 -253t253.5 -106zM512 834q185 0 316.5 -131.5t131.5 -316.5t-131.5 -316.5t-316.5 -131.5t-316.5 131.5t-131.5 316.5t131.5 316.5t316.5 131.5zM422 184v404l269 -202zM422 184
z" />
    <glyph glyph-name="uniE602" unicode="&#xe602;" 
d="M512 -62q-91 0 -174 35.5t-143 95.5t-95.5 143t-35.5 174t35.5 174t95.5 143t143 95.5t174 35.5t174 -35.5t143 -95.5t95.5 -143t35.5 -174t-35.5 -174t-95.5 -143t-143 -95.5t-174 -35.5v0zM512 770q-104 0 -192.5 -51.5t-140 -140t-51.5 -192.5t51.5 -192.5t140 -140
t192.5 -51.5t192.5 51.5t140 140t51.5 192.5t-51.5 192.5t-140 140t-192.5 51.5v0zM513 125q-67 0 -126.5 29t-100.5 81q-8 11 -6.5 24t12 21t23.5 6.5t22 -11.5q32 -41 78 -63.5t98 -22.5q53 0 99.5 23t78.5 64q8 11 21 12.5t23.5 -6.5t12 -21t-6.5 -24
q-41 -53 -100.5 -82.5t-127.5 -29.5v0zM369 383q-20 0 -34 14t-14 34v64q0 20 14 34t34 14t34 -14t14 -34v-64q0 -20 -14 -34t-34 -14v0zM657 383q-20 0 -34 14t-14 34v64q0 20 14 34t34 14t34 -14t14 -34v-64q0 -20 -14 -34t-34 -14v0zM657 383z" />
    <glyph glyph-name="uniE603" unicode="&#xe603;" 
d="M512 33q-194 0 -313 85q-135 96 -135 277q0 154 117 154q37 0 128 -22q131 -32 203 -32q75 0 203 32q91 22 127 22q118 0 118 -154q0 -181 -135 -277q-118 -85 -313 -85zM181 493q-14 0 -21.5 -2t-18.5 -10t-16 -30t-5 -56q0 -152 111 -231q104 -75 281 -75t281 75
q111 79 111 231q0 34 -5 56t-16 30t-18.5 10t-21.5 2q-29 0 -114 -21q-137 -33 -216 -33q-81 0 -217 33q-83 21 -115 21zM305 546q0 86 60.5 146.5t146.5 60.5t146.5 -60.5t60.5 -146.5l-56 -13q0 64 -45 114t-106 50t-106 -50.5t-45 -113.5zM513 156q-52 0 -88.5 35.5
t-36.5 85.5t36 85t87 35q38 0 69 -19.5t44 -53.5h-51q-10 15 -26.5 24t-35.5 9q-33 0 -56.5 -23.5t-23.5 -57t23.5 -57t57.5 -23.5q33 0 55 23q9 10 14 20h-96v40h151v-2q0 -50 -36 -85.5t-87 -35.5z" />
    <glyph glyph-name="uniE604" unicode="&#xe604;" 
d="M511 686l449 47v-650l-449 -47v650zM553 94l354 37v543l-354 -37v-543zM828 530q11 1 19 9.5t8 19.5t-8 18t-19 6l-204 -22q-11 -1 -19 -9.5t-8 -19.5t8 -18t19 -6zM828 376q11 1 19 9.5t8 19.5t-8 18t-19 6l-204 -21q-11 -1 -19 -10t-8 -20t8 -18t19 -6zM828 222
q11 1 19 10t8 20t-8 18t-19 5l-204 -21q-11 -1 -19 -9.5t-8 -20t8 -18t19 -5.5zM513 36l-449 47v650l449 -47v-650zM471 94v543l-354 37v-543zM196 530l204 -22q11 -1 19 6t8 18t-8 19.5t-19 9.5l-204 22q-11 1 -19 -6t-8 -18t8 -19.5t19 -9.5zM196 376l204 -22q11 -1 19 6
t8 18t-8 20t-19 10l-204 21q-11 1 -19 -6t-8 -18t8 -19.5t19 -9.5zM196 222l204 -21q11 -1 19 5.5t8 18t-8 20t-19 9.5l-204 21q-11 2 -19 -5t-8 -18t8 -20t19 -10z" />
    <glyph glyph-name="uniE605" unicode="&#xe605;" 
d="M829 70q-62 -62 -143.5 -97t-173.5 -35q-91 0 -172.5 34.5t-144.5 97.5q-62 62 -96.5 143.5t-34.5 171.5q0 92 34.5 173.5t96.5 143.5q63 63 144.5 97.5t172.5 34.5q92 0 173.5 -34.5t143.5 -97.5q62 -62 96.5 -143.5t34.5 -173.5q0 -90 -34.5 -171.5t-96.5 -143.5z
M793 666q-55 55 -127.5 85t-153.5 30t-153 -30t-127 -85t-86 -127.5t-31 -153.5q0 -80 31 -152t86 -127t127 -85t153 -30t153.5 30t127.5 85q54 55 84.5 127.5t30.5 151.5q1 81 -30 153.5t-85 127.5zM692 133l-43 -21l-69 147l-3 5q33 14 49 18q8 2 12 0t6 -5l1 -3
q43 -89 53 -110q4 -11 3 -18t-5 -10zM386 301q-27 52 -42.5 99t-18.5 80t0 61t11 46t16 30.5t14 18.5l6 7q4 -11 69 -149q-11 0 -12 -11t6 -40q5 -28 35.5 -88t50.5 -86q10 -14 20.5 -18t15.5 -2l5 3l65 -147l-6 -3q-4 -2 -18 -3t-29 2.5t-37.5 15.5t-45 33t-50.5 60t-55 91
zM372 643zM504 524l-42 -21l-69 146l-3 4q32 14 49 19q7 2 11.5 0t6.5 -4l1 -3q42 -90 53 -112q4 -10 2.5 -17t-5.5 -9zM504 524z" />
    <glyph glyph-name="uniE606" unicode="&#xe606;" 
d="M931 447l-339 353q-33 34 -80 34t-80 -34l-339 -353q-16 -17 -23 -34.5t-6.5 -28t4.5 -18.5q15 -35 58 -35h50v-272q0 -48 30.5 -84t76.5 -36h58h87v64v224v12v11q0 3 0.5 8.5t2.5 7.5t5 4.5t7.5 3.5t11.5 1h57h57q7 0 11.5 -1t7.5 -3.5t5 -4.5t2.5 -7.5t0.5 -8.5v-11
v-12v-224v-64h87h58q45 0 76 36t31 84v272h50q42 0 58 35q4 8 4.5 18.5t-6.5 28t-23 34.5zM898 387h-43h-29h-34v-328q0 -25 -14.5 -44.5t-36.5 -19.5h-89v232q0 104 -83 104h-57h-57q-83 0 -83 -104v-232h-89q-22 0 -36.5 19.5t-14.5 44.5v328h-34h-29h-43l-1 2l-1 2
q9 16 10 17l340 353q16 18 38 17q21 1 38 -17l340 -353q1 -1 10 -17l-1 -2zM898 387z" />
    <glyph glyph-name="uniE607" unicode="&#xe607;" 
d="M512 834q-91 0 -174 -35.5t-143 -95.5t-95.5 -143t-35.5 -174t35.5 -174t95.5 -143t143 -95.5t174 -35.5t174 35.5t143 95.5t95.5 143t35.5 174t-35.5 174t-95.5 143t-143 95.5t-174 35.5zM512 2q-104 0 -192.5 51.5t-140 140t-51.5 192.5t51.5 192.5t140 140t192.5 51.5
t192.5 -51.5t140 -140t51.5 -192.5t-51.5 -192.5t-140 -140t-192.5 -51.5zM794 188h-566l141 199l87 -119l168 232zM284 528.5q0 23.5 16.5 40t40 16.5t40 -16.5t16.5 -40t-16.5 -40t-40 -16.5t-40 16.5t-16.5 40z" />
    <glyph glyph-name="uniE608" unicode="&#xe608;" 
d="M512 834q-91 0 -174 -35.5t-143 -95.5t-95.5 -143t-35.5 -174t35.5 -174t95.5 -143t143 -95.5t174 -35.5t174 35.5t143 95.5t95.5 143t35.5 174t-35.5 174t-95.5 143t-143 95.5t-174 35.5zM512 2q-104 0 -192.5 51.5t-140 140t-51.5 192.5t51.5 192.5t140 140t192.5 51.5
t192.5 -51.5t140 -140t51.5 -192.5t-51.5 -192.5t-140 -140t-192.5 -51.5zM641 386q13 0 22.5 9.5t9.5 22.5t-9.5 22.5t-22.5 9.5h-97v15l119 124q9 10 8.5 23t-10 22t-22.5 9t-22 -10l-102 -107l-108 108q-9 9 -22 9t-22.5 -9.5t-10 -22.5t9.5 -23l118 -118v-20h-95
q-13 0 -22.5 -9.5t-9.5 -22.5t9.5 -22.5t22.5 -9.5h95v-64h-95q-13 0 -22.5 -9.5t-9.5 -22.5t9.5 -22.5t22.5 -9.5h95v-95q0 -13 9.5 -22.5t22.5 -9.5t22.5 9.5t9.5 22.5v95h97q13 0 22.5 9.5t9.5 22.5t-9.5 22.5t-22.5 9.5h-97v64h97zM641 386z" />
    <glyph glyph-name="uniE609" unicode="&#xe609;" 
d="M710 -62l-447 449l445 446l50 -50l-396 -396l398 -399zM710 -62z" />
    <glyph glyph-name="uniE60A" unicode="&#xe60a;" 
d="M335 654q0 74 52 126t126 52t126.5 -52t52.5 -126t-52.5 -126.5t-126.5 -52.5t-126 52.5t-52 126.5v0zM751 416h-33l-185 -376l69 346l-89 89l-89 -89l69 -346l-185 376h-33q-22 0 -39 -3.5t-29.5 -11.5t-21.5 -15.5t-14 -22.5l-9 -25q-3 -11 -4 -31.5t-1.5 -32.5
t-0.5 -37v-297h714v297v37q0 12 -1.5 32.5t-4.5 31t-8.5 25.5t-14.5 22.5t-21 15.5t-29.5 11.5t-39.5 3.5v0zM751 416z" />
    <glyph glyph-name="uniE60B" unicode="&#xe60b;" 
d="M512 -62q-91 0 -174 35.5t-143 95.5t-95.5 143t-35.5 174t35.5 174t95.5 143t143 95.5t174 35.5t174 -35.5t143 -95.5t95.5 -143t35.5 -174t-35.5 -174t-95.5 -143t-143 -95.5t-174 -35.5zM512 770q-104 0 -192.5 -51.5t-140 -140t-51.5 -192.5t51.5 -192.5t140 -140
t192.5 -51.5t192.5 51.5t140 140t51.5 192.5t-51.5 192.5t-140 140t-192.5 51.5zM669 397h-1q-2 6 -6 10v0l-159 160q-10 9 -23 9t-22.5 -9t-9.5 -22.5t10 -22.5l136 -137l-138 -136q-9 -9 -9 -22.5t9.5 -23t22.5 -9.5t22 10l161 158q15 15 7 35zM669 397z" />
    <glyph glyph-name="uniE60C" unicode="&#xe60c;" 
d="M512 834q-91 0 -174 -35.5t-143 -95.5t-95.5 -143t-35.5 -174t35.5 -174t95.5 -143t143 -95.5t174 -35.5t174 35.5t143 95.5t95.5 143t35.5 174t-35.5 174t-95.5 143t-143 95.5t-174 35.5zM289 74q7 0 10 1q103 37 158 41q12 1 20.5 10t8.5 22v59q0 15 -11 24
q-37 32 -54.5 94.5t-17.5 128.5q0 136 125 136q118 0 118 -136q0 -66 -26 -132.5t-64 -96.5q-12 -10 -12 -25v-55q0 -12 8 -21.5t21 -10.5q50 -6 148 -45h3q1 0 2 -1q-97 -65 -214 -65q-122 0 -223 72zM765 98q0 22 -21 30q-79 31 -136 44v13q48 45 75 121.5t27 147.5
q0 96 -47.5 148t-134.5 52q-89 0 -139 -53t-50 -147q0 -23 2.5 -49.5t10 -66.5t25.5 -79t45 -66v-17q-61 -11 -145 -40q-11 -4 -16.5 -14.5t-3.5 -21.5q-60 54 -94.5 128t-34.5 158q0 104 51.5 192.5t140 140t192.5 51.5t192.5 -51.5t140 -140t51.5 -192.5q0 -85 -35 -159.5
t-96 -128.5v0zM765 98z" />
    <glyph glyph-name="uniE60D" unicode="&#xe60d;" 
d="M511 722q-106 0 -196 -52.5t-142.5 -142.5t-52.5 -196.5t52.5 -196.5t142.5 -142.5t196.5 -52.5t196.5 52.5t142.5 142.5t52.5 196.5t-52.5 196.5t-142.5 142.5t-197 52.5zM511 16q-130 0 -222 92t-92 222.5t92 222.5t222.5 92t222.5 -92t92 -222.5t-92 -222.5t-223 -92z
M881 583q22 39 22 83q0 70 -49 119t-119 49q-40 0 -74.5 -17.5t-58.5 -47.5q86 -18 158 -66.5t121 -119.5zM420 769q-23 30 -58 47.5t-74 17.5q-70 0 -119 -49t-49 -119q0 -44 22 -83q48 71 120.5 119.5t157.5 66.5zM456 554h55v-280h-55v280zM511 330h168v-56h-168v56z
M511 330z" />
    <glyph glyph-name="uniE60E" unicode="&#xe60e;" 
d="M433 443h156v-140h-156v140zM960 386q0 -91 -35.5 -174t-95.5 -143t-143 -95.5t-174 -35.5t-174 35.5t-143 95.5t-95.5 143t-35.5 174t35.5 174t95.5 143t143 95.5t174 35.5t174 -35.5t143 -95.5t95.5 -143t35.5 -174zM310 549h-44v-435h44v435zM370 546l36 32
q-50 52 -80 81l-32 -29q28 -29 76 -84zM629 262v222h-236v-254h40v32h196zM758 623h-318v-42h274v-381q0 -44 -40 -44q-43 0 -89 4q7 -29 9 -45q44 -1 91 -1q73 0 73 80v429z" />
    <glyph glyph-name="uniE60F" unicode="&#xe60f;" 
d="M825 380l44 -44l-36 -36l-45 44zM960 443v-505l-896 896h503zM493 693q0 -10 -1 -16q48 -9 87 1q-10 -42 -1 -85q7 1 18 2q-13 42 0 88q2 1 5 3l-12 12q-45 -16 -96 -5zM409 633l41 41q20 -11 22 -13q9 9 12 11q-12 8 -22 14l32 32l18 -17l10 9l-18 18l27 27l-11 11
l-27 -27l-19 19l-10 -10l19 -19l-35 -35q-22 14 -25 16l-11 -13q14 -8 25 -15l-37 -37q-7 -7 -14 0q-5 5 -11 13q-5 -8 -10 -14l13 -13q15 -14 31 2zM515 529q12 7 25 16q-4 7 -8 15q-10 -8 -21 -16q-12 -8 -24 4l-29 29q-13 13 0 26l49 49l42 -42q-12 -10 -22 -19
q-11 -8 -21 2q-9 9 -19 22l-10 -15q7 -8 20 -20q18 -18 38 -2q15 11 37 31l-66 65l-62 -62q-21 -21 1 -43l34 -34q17 -18 36 -6zM583 506h-8q19 12 47 40l29 29l-10 10l-33 -33q-30 -30 -48 -37q-20 -8 -49 -4q0 -9 -1 -16q37 -3 58 8q-1 -26 -4 -49l17 -1q1 23 2 53z
M665 393q24 22 95 91l-55 55q13 6 27 13l-9 14q-35 -21 -71 -29l41 42l-48 49l-91 -91l11 -10l79 80l28 -28l-78 -79l10 -11l47 48q4 -9 5 -16q16 5 34 12l48 -48q-56 -56 -82 -79q-15 -14 -31 1q-11 12 -24 27q-4 -7 -9 -14q13 -14 26 -27q22 -22 47 0zM626 472
q31 14 67 32l-9 14q-34 -20 -61 -31q-8 -3 -16 -1l-5 -14q8 -5 15 -11q14 -10 30 -25q-3 -5 -7 -11l14 -7q17 29 31 56l-13 7q-9 -17 -18 -33q-15 13 -28 24zM892 335l-56 56l31 32l-12 12l-32 -31l-55 55l-66 -66l12 -12l8 8l43 -43l-53 -54l12 -12l54 53l44 -44l-8 -8
l12 -12zM769 437l-37 -37l44 -44l37 37z" />
    <glyph glyph-name="uniE610" unicode="&#xe610;" 
d="M829 702q62 -62 96.5 -143.5t34.5 -171.5q0 -92 -34.5 -173.5t-96.5 -143.5t-143.5 -97t-173.5 -35q-91 0 -172.5 35t-144.5 97q-62 62 -96.5 143.5t-34.5 173.5q0 90 34.5 171.5t96.5 143.5q63 63 144.5 97.5t172.5 34.5q92 0 173.5 -34.5t143.5 -97.5zM793 106
q54 55 85 127.5t30 153.5q0 80 -30.5 152t-84.5 127q-55 55 -127.5 85t-153.5 30t-153 -30t-127 -85t-86 -127t-31 -152q0 -81 31 -153.5t86 -127.5t127 -85t153 -30t153.5 30t127.5 85zM724 404q2 39 -1 43q-3 9 -7.5 13t-7.5 4.5t-3 2.5q0 87 -56.5 148.5t-136 61.5
t-135.5 -61t-56 -148q0 -4 -5.5 -7t-8.5 -13q-2 -6 -1.5 -8t1 -12t0.5 -22q0 -3 -9 -15.5t-21.5 -32t-17.5 -36.5q-25 -71 5 -93q14 -10 35 31q7 11 8 11q2 -9 4 -13q11 -30 34 -58q1 -2 -4 -5.5t-14.5 -11.5t-15.5 -18q-12 -21 7.5 -45t67.5 -24q25 0 45.5 3t32.5 8
t19.5 9.5t10.5 7.5l4 4h15q3 0 6.5 -0.5t6.5 0.5q1 0 7 -4t16 -9.5t22.5 -10.5t29.5 -7.5t34 -0.5q22 2 37.5 6t25 8t14.5 11t7.5 10t1 12t-2 11t-3.5 11q-2 6 -7 12t-10 10t-10 7l-8 4q-2 2 -2 3q6 7 11 13.5t8 11t6 11.5t4 10.5t4 12t4 11.5q1 4 8 -8q21 -35 31 -36
q4 -1 7 2q5 5 9 14.5t5.5 30t-6.5 48.5q-7 26 -19 44t-19.5 26.5t-6.5 11.5zM724 404z" />
    <glyph glyph-name="uniE611" unicode="&#xe611;" 
d="M263 -11l398 399l-396 396l50 50l445 -446l-447 -449zM313 -61z" />
    <glyph glyph-name="uniE612" unicode="&#xe612;" 
d="M157 268v4q3 39 33 67q27 25 64 29q23 3 50 -6q9 -3 28 -17q8 -5 23 -16.5t27 -20t23 -16.5q44 -27 80 -31q28 -3 60 3q76 13 133 67q35 32 76 33q54 1 89 -40q14 -17 21 -39q1 -4 2 -10.5t1 -9.5v-321q0 -6 -5 -6q-350 1 -700 0q-5 0 -5 6v316q1 4 0 8zM533 834
q27 -5 28 -5q70 -15 121 -69t61 -125q13 -93 -39 -168t-144 -95q-93 -20 -175 33t-101 145q-20 96 30.5 175.5t144.5 102.5q1 0 25 4q3 1 3 2h6q0 -1 2 -1t3 1h25q1 -1 4 -1q2 0 3 1h3zM157 268q3 -4 0 -8v8zM527 833q-3 -1 -4 1h4l1 -1h-1zM495 833q-2 -1 -2 1h2l1 -1h-1z
M495 833v1h3q-1 -2 -3 -1zM527 833v1h3q0 -2 -3 -1zM527 833z" />
    <glyph glyph-name="uniE613" unicode="&#xe613;" 
d="M456 833h-392v-392l504 -503l391 391zM232 609q-23 0 -39.5 16.5t-16.5 39.5t16.5 39.5t39.5 16.5t39.5 -16.5t16.5 -39.5t-16.5 -39.5t-39.5 -16.5zM232 609z" />
    <glyph glyph-name="uniE614" unicode="&#xe614;" 
d="M512 834q-91 0 -174 -35.5t-143 -95.5t-95.5 -143t-35.5 -174t35.5 -174t95.5 -143t143 -95.5t174 -35.5t174 35.5t143 95.5t95.5 143t35.5 174t-35.5 174t-95.5 143t-143 95.5t-174 35.5zM565 650l-12 -361h-83l-12 361h107zM555 138.5q-18 -16.5 -43.5 -16.5t-43 16.5
t-17.5 39.5t17.5 39.5t43 16.5t43.5 -16.5t18 -39.5t-18 -39.5z" />
    <glyph glyph-name="uniE615" unicode="&#xe615;" 
d="M957 505l-104 246q-8 20 -29 20h-595q-18 0 -28 -17l-133 -242q-10 -19 3 -36l418 -525q9 -12 25 -12q15 0 25 12l414 522q12 15 4 32zM739 707l-226 -183l-207 183h433zM235 683l192 -168h-206q-13 0 -22.5 -9.5t-9.5 -23t9.5 -22.5t22.5 -9h256v-383l-343 432zM541 57
v394h256q13 0 22.5 9t9.5 22.5t-9.5 23t-22.5 9.5h-194l209 169l79 -186zM541 57z" />
    <glyph glyph-name="uniE616" unicode="&#xe616;" 
d="M64 630l444 -493l452 493h-896zM960 628z" />
    <glyph glyph-name="uniE617" unicode="&#xe617;" 
d="M748 410l48 -47l-11 -10l-47 47zM776 262l20 20l-87 88l-21 -21zM661 543l-11 -11l52 -52l11 11zM786 448l-9 -9l47 -47l10 10l-46 46h-2zM960 443v-505l-896 896h503zM709 548l-44 44l-9 -9l100 -100l9 9l-44 44q5 13 8 26l-14 6q-2 -10 -6 -20zM692 436l-13 -13l10 -10
l22 22l-105 105l-22 -22l10 -11l13 14zM732 490l-72 72l-33 -32l10 -10l4 4l53 -53l-4 -3l10 -11zM516 535q11 6 28 19q-5 9 -8 17q-16 -13 -27.5 -19.5t-23.5 5.5l-71 71q-13 13 1 26l42 42l86 -86l-9 -9l12 -12l67 67l-116 116l-10 -10l103 -104l-37 -37l-86 86l20 20
l-12 12l-75 -75q-23 -23 -1 -45l77 -76q19 -20 40 -8zM528 478l105 105q22 9 45 22l-8 13q-47 -28 -99 -40q-3 -8 -7 -16q18 3 37 9l-83 -83zM638 448l28 -29l9 10l-76 75l-9 -9l37 -37l-17 -18q-10 -9 -18 -1t-17 18q-4 -7 -9 -13q11 -12 18 -19q16 -15 33 2zM816 281
l-109 109l-46 -46l10 -11l8 7l87 -87l-7 -8l11 -10zM905 349l-53 53l9 -2q2 12 4 27l-14 3q-2 -11 -5 -22l-44 44q11 2 23 6l-7 14q-38 -14 -80 -12q0 -9 -2 -16q13 0 25 1l-49 -49l11 -11l6 6l112 -112l9 9l-54 54l10 11l47 -47l9 9l-47 47l10 10l47 -47l9 9l-47 47l11 10
l51 -51zM757 419l47 -47l11 11l-47 47z" />
    <glyph glyph-name="uniE618" unicode="&#xe618;" 
d="M825 361l30 30l31 -31l-30 -30zM960 443v-505l-896 896h503zM774 484l-10 -10l20 -20q-29 -25 -68 -19q1 -9 0 -16q47 -5 79 24l22 -22q-12 -11 -27 -24q-10 -8 -18 0q-5 5 -13 14q-3 -6 -8 -13l11 -11t19 -10q9 0 23 12q13 12 33 31l-32 32q8 7 17 16l-11 11
q-9 -9 -17 -16zM543 610l-9 -9l12 -12l67 67l-116 116l-10 -10l103 -104l-37 -37l-86 86l20 20l-12 12l-75 -75q-23 -23 -1 -45l77 -76q19 -20 40 -8q11 6 28 19q-5 9 -8 17q-16 -13 -27.5 -19.5t-23.5 5.5l-71 71q-13 13 1 26l42 42zM572 435l85 85q12 -51 17 -90l20 3
q-7 38 -20 90l-16 -2l31 31l70 -70l12 12l-140 140l-12 -12l57 -57l-117 -117zM842 278l-64 64l16 16l-11 11l-16 -16l-64 64l-10 -10l55 -56q-47 4 -91 25q0 -10 -1 -18q48 -20 98 -18l-45 -45l11 -11l45 45q-5 -47 19 -95q9 1 20 2q-28 42 -29 88l57 -57zM906 359l-52 52
l-57 -57l10 -11l8 8l31 -31l-7 -7l10 -11z" />
    <glyph glyph-name="uniE619" unicode="&#xe619;" 
d="M904 608l-55 53l-293 -304q-11 -12 -28 -12q-16 0 -27 12l-153 158l-217 -229q-12 -12 -28 -12t-27 11q-12 11 -12 27t11 27l245 258q11 12 28 12q16 0 28 -11l152 -159l265 276l-56 53l223 65zM103 222q-13 0 -26 4v-216h116v267l-25 -26q-26 -29 -65 -29zM219 10h116
v416l-116 -122v-294zM464 321l-103 106v-417h116v300q-7 5 -13 11zM529 293q-14 0 -26 4v-287h116v337l-25 -26q-27 -28 -65 -28zM644 374v-364h117v485zM850 588l-64 -66v-512h116v528zM850 588z" />
    <glyph glyph-name="uniE61A" unicode="&#xe61a;" 
d="M512 -62q-91 0 -174 35.5t-143 95.5t-95.5 142.5t-35.5 173.5t35.5 174t95.5 143t143 95.5t174 35.5t173.5 -35.5t142.5 -95.5t95.5 -143t35.5 -174t-35.5 -173.5t-95.5 -142.5t-142.5 -95.5t-173.5 -35.5zM512 765q-103 0 -190.5 -51t-138.5 -138.5t-51 -190.5
t51 -190.5t138.5 -138t190.5 -50.5t190.5 50.5t138 138t50.5 190.5t-50.5 190.5t-138 138.5t-190.5 51zM512 765zM450 172l-211 210l49 48l162 -162l286 286l48 -48zM450 172z" />
    <glyph glyph-name="uniE61B" unicode="&#xe61b;" 
d="M556 207v358h91v-358h-91zM512 27q147 0 253 106t106 253t-106 253.5t-253 106.5t-253.5 -106.5t-106.5 -253.5t106.5 -253t253.5 -106zM512 834q185 0 316.5 -131.5t131.5 -316.5t-131.5 -316.5t-316.5 -131.5t-316.5 131.5t-131.5 316.5t131.5 316.5t316.5 131.5z
M377 207v358h91v-358h-91zM377 207z" />
    <glyph glyph-name="uniE61C" unicode="&#xe61c;" 
d="M943 37l-182 181q75 102 75 229q0 104 -51.5 193t-140.5 141t-193.5 52t-193.5 -52t-141 -141t-52 -193.5t52 -193.5t141 -141t193 -52q127 0 229 75l181 -181q17 -17 41.5 -17t41.5 17t17 41.5t-17 41.5zM159 446.5q0 120.5 85.5 206t206 85.5t205.5 -85.5t85 -206
t-85 -205.5t-205.5 -85t-206 85t-85.5 205.5z" />
    <glyph glyph-name="uniE61D" unicode="&#xe61d;" 
d="M511 833q-121 0 -224 -52.5t-163 -142.5t-60 -196q0 -91 45 -171t123 -135v-197l196 118q42 -7 83 -7q122 0 225 52.5t162.5 142.5t59.5 196.5t-59.5 196.5t-162.5 142.5t-225 52.5zM511 116q-35 0 -73 6l-24 4l-117 -71v115l-28 20q-66 47 -103 112.5t-37 139.5
q0 88 51.5 163t139.5 119t191.5 44t191.5 -44t139 -119t51 -163.5t-51 -163.5t-139 -118.5t-192 -43.5zM511 116zM254 442q0 -26 18.5 -44.5t45 -18.5t45 18.5t18.5 45t-18.5 45t-45 18.5t-45 -18.5t-18.5 -45.5zM254 442zM450 442q0 -26 18.5 -44.5t45 -18.5t45 18.5
t18.5 45t-18.5 45t-45 18.5t-45 -18.5t-18.5 -45.5zM450 442zM646 440q0 -26 18.5 -44.5t45 -18.5t45.5 18.5t19 45t-19 45t-45.5 18.5t-45 -18.5t-18.5 -45.5zM646 440z" />
    <glyph glyph-name="uniE61E" unicode="&#xe61e;" 
d="M725 293q9 -7 21.5 -4t19.5 14q5 7 5 21q-3 11 -12 20q-46 26 -53 29q39 39 55 82q22 51 22 109q0 112 -79 191t-191 79t-190 -80t-78 -193q0 -111 79 -191q-117 -54 -187.5 -163.5t-70.5 -239.5q0 -13 8 -21t21 -8t21 8t8 21q0 121 69.5 221t181.5 141
q64 -37 138.5 -36.5t136.5 36.5q46 -16 75 -36zM723 561q0 -47 -17 -84q-13 -33 -46 -66q-60 -60 -147 -60t-148.5 61.5t-61.5 148.5t61.5 148.5t148.5 61.5t148.5 -61.5t61.5 -148.5zM723 561zM950 105l-111 111q-9 9 -23 9t-23 -9q-10 -10 -10 -22q0 -15 10 -22l58 -58
h-201q-12 0 -21.5 -9t-9.5 -22t9.5 -22t21.5 -9h201l-58 -58q-10 -10 -10 -22q0 -15 10 -22q6 -9 21.5 -9t21.5 9l111 111q2 1 4 5t4 5q4 12 0 24q0 5 -5 10zM950 105z" />
    <glyph glyph-name="uniE61F" unicode="&#xe61f;" 
d="M960 491l-309 47l-139 296l-139 -296l-309 -47l224 -229l-53 -324l277 153l277 -153l-53 324zM512 156z" />
    <glyph glyph-name="uniE620" unicode="&#xe620;" 
d="M960 491l-309 47l-139 296l-139 -296l-309 -47l224 -229l-53 -324l277 153l277 -153l-53 324zM512 156l-208 -116l40 235l-179 183l242 31l105 224l104 -224l241 -34l-177 -181l37 -235zM512 156z" />
    <glyph glyph-name="uniE621" unicode="&#xe621;" 
d="M921 491h-60q-2 7 -12 32l-2 12q-2 4 -6.5 14.5t-7.5 15.5l42 41q9 9 9 25q0 12 -9 26l-97 96q-9 9 -24.5 9t-23.5 -9l-42 -41q-3 1 -9.5 4.5t-12 6.5t-10.5 5l-9 5q-5 2 -16.5 5.5t-16.5 5.5v56q0 13 -10 23.5t-24 10.5h-138q-14 0 -24.5 -10.5t-10.5 -23.5v-60
q-7 -2 -32 -12l-12 -4q-4 -3 -14.5 -7.5t-15.5 -6.5l-41 41q-10 10 -25 10.5t-23 -8.5l-99 -99q-10 -9 -10 -23q0 -11 10 -25l41 -41q-1 -3 -4.5 -9.5t-6.5 -12.5t-5 -11l-2 -9q-3 -5 -6.5 -16t-5.5 -16h-57q-14 0 -24.5 -10.5t-10.5 -24.5v-138q0 -14 10.5 -24t24.5 -10h59
q2 -7 12 -33l5 -9q2 -4 6.5 -14.5t6.5 -15.5l-43 -41q-10 -9 -10 -26q0 -11 10 -25l96 -97q9 -8 24.5 -8t24.5 8l41 42q5 -2 15.5 -7t14.5 -7l12 -5q5 -2 16 -5.5t16 -5.5v-60q0 -14 10.5 -24t23.5 -10h139q13 0 23.5 10t10.5 24v60q7 1 32 11l10 5q4 2 14.5 7t15.5 7
l41 -42q9 -8 24.5 -8t23.5 8l97 97q9 9 9 25q0 12 -9 26l-37 41q16 32 16 33l5 9q2 5 6 16t5 16h60q14 0 24.5 10.5t10.5 24.5v138q-2 14 -13 23t-26 9zM815 344l-7 -28q-3 -19 -14 -44l-2 -9q-16 -32 -21 -39l-14 -23l58 -58l-62 -62l-58 58l-23 -14q-17 -11 -41 -21l-7 -2
l-42 -14l-27 -7v-81h-90v81l-28 7q-3 1 -18.5 5.5t-25.5 8.5l-7 2q-32 16 -39 21l-23 14l-57 -58l-62 62l57 58l-14 23q-7 11 -20 39l-3 9l-14 42l-6 27h-83v90h80l7 28q5 16 14 43l5 10q5 16 20 39l14 23l-57 57l62 63l57 -58l23 14q12 7 39 21l10 2l41 14l28 7v82h90v-80
l27 -9q19 -3 44 -14l7 -2q32 -17 39 -21l23 -14l58 58l62 -63l-58 -57l14 -23q7 -12 21 -39l2 -10l14 -41l7 -28h80v-89h-80zM815 344zM511 581q-80 0 -135.5 -56t-55.5 -135.5t55.5 -135.5t135 -56t135.5 56t56 136q0 78 -56 134.5t-135 56.5zM511 256q-55 0 -94.5 39
t-39.5 94.5t39.5 94.5t94.5 39t94 -39t39 -94q-1 -57 -40 -95.5t-93 -38.5zM511 256z" />
    <glyph glyph-name="uniE622" unicode="&#xe622;" 
d="M532 790q-51 0 -111 -17t-108 -42l-2 3l-58 97q-6 7 -18 -5q-5 -5 -46.5 -77t-80.5 -141t-39 -70t-1 -3t-2.5 -7.5t-1.5 -10t3.5 -8t10.5 -3.5h334h3q2 0 6.5 1.5t7.5 4.5t3 9t-5 15q-10 17 -55 95q34 18 79.5 30.5t80.5 12.5q129 0 220 -90.5t91 -219t-91 -219
t-220 -90.5q-101 0 -181.5 58.5t-112.5 151.5h-123q39 -142 155 -234t262 -92q116 0 214 57t155 155t57 213.5t-57 213.5t-155 155t-214 57v0zM532 790z" />
    <glyph glyph-name="uniE623" unicode="&#xe623;" 
d="M512 -62q-91 0 -174 35t-143 95t-95.5 143t-35.5 174t35.5 174t95.5 143t143 95.5t174 35.5t174 -35.5t143 -95.5t95 -143t35 -174t-35 -174t-95 -143t-143 -95t-174 -35zM512 788q-108 0 -201 -54.5t-147.5 -147.5t-54.5 -200.5t54.5 -200.5t147.5 -148t201 -55t201 55
t147.5 148t54.5 200.5t-54.5 200.5t-147.5 147.5t-201 54.5zM310 430h90v134q0 64 24.5 88t87 24t87.5 -24t25 -88v-134h89v-269h-403v269zM579 564q0 32 -18 49.5t-49.5 17.5t-49 -17.5t-17.5 -49.5v-134h134v134zM355 206h313v179h-313v-179zM355 206z" />
    <glyph glyph-name="uniE624" unicode="&#xe624;" 
d="M512 -61q91 0 174 35.5t143 95.5t95.5 143t35.5 174t-35.5 174t-95.5 143t-143 95.5t-174 35.5t-174 -35.5t-143 -95.5t-95.5 -143t-35.5 -174t35.5 -174t95.5 -143t143 -95.5t174 -35.5v0zM512 779q106 0 196.5 -52.5t143 -143t52.5 -196.5t-52.5 -196.5t-143 -143
t-196.5 -52.5t-196.5 52.5t-143 143t-52.5 196.5t52.5 196.5t143 143t196.5 52.5v0zM512 682q72 0 123.5 -51t51.5 -122.5t-51.5 -122.5t-123.5 -51t-123.5 51t-51.5 122.5t51.5 122.5t123.5 51v0zM512 385q52 0 88.5 36t36.5 87.5t-36.5 87.5t-88.5 36t-88.5 -36
t-36.5 -87.5t36.5 -87.5t88.5 -36v0zM512 385q103 0 176.5 -72.5t73.5 -175.5h-50q0 82 -58.5 140t-141.5 58t-141.5 -58t-58.5 -140h-50q0 103 73 175.5t177 72.5v0zM512 385z" />
    <glyph glyph-name="uniE625" unicode="&#xe625;" 
d="M456 161h112v112h-112v-112zM288 329h112v112h-112v-112zM288 161h112v112h-112v-112zM848 833h-112v-56q0 -23 -16.5 -39.5t-40 -16.5t-39.5 16.5t-16 39.5v56h-224v-56q0 -23 -16.5 -39.5t-39.5 -16.5t-39.5 16.5t-16.5 39.5v56h-112q-46 0 -79 -33t-33 -79v-672
q0 -46 33 -78.5t79 -32.5h672q46 0 78.5 32.5t32.5 78.5v672q0 46 -32.5 79t-78.5 33zM848 105q0 -23 -16.5 -39.5t-39.5 -16.5h-560q-23 0 -39.5 16.5t-16.5 39.5v392q0 23 16.5 39.5t39.5 16.5h560q23 0 39.5 -16.5t16.5 -39.5v-392zM624 329h112v112h-112v-112zM456 329
h112v112h-112v-112zM624 161h112v112h-112v-112zM624 161z" />
    <glyph glyph-name="uniE626" unicode="&#xe626;" 
d="M905 352h-162q-11 0 -16 -2l-13 -9l-199 -203q-6 -5 -12 0l-212 216q-2 2 -2 5.5t2 6.5l213 215q5 8 11 0l187 -190q8 -9 16 -12q4 -1 9.5 1.5t8.5 5.5l4 2l86 90l-252 254q-55 56 -134 46q-152 -25 -250 -144t-98 -276q0 -87 33.5 -166t90 -136t133.5 -90.5t160 -33.5
q109 0 203.5 54.5t152 148.5t62.5 207q0 5 -5 9q-2 2 -6.5 2t-7.5 -1h-3v0zM905 352zM641 739l220 -223l61 60q6 10 8 19q0 2 -2 5.5t-4 5.5l-3 2l-134 138q-36 36 -76.5 56t-73 23t-60 1t-43.5 -7l-15 -6q2 0 6.5 -0.5t18 -4.5t27.5 -11t33 -22.5t37 -35.5v0zM641 739z" />
    <glyph glyph-name="uniE627" unicode="&#xe627;" 
d="M512 834q-115 0 -215 -57t-162.5 -155.5t-69.5 -214.5q-7 -117 42.5 -223t142 -175t206.5 -84t220.5 29t180.5 134t95 204q16 87 0 175t-62 161q-44 71 -112 120.5t-149 70.5q-57 15 -117 15v0zM165 378q0 128 83.5 230t208.5 122v-122q0 -4 0.5 -13t0.5 -16t-2 -11
q-1 -3 -8.5 -4t-14.5 -1t-16 1t-11 1q-37 0 -67 -21.5t-38 -57.5q-3 -10 -3.5 -21t0.5 -27t1 -22v-122q0 -26 13 -49.5t35.5 -37t68.5 -13.5q2 0 10 0.5t13 0.5t10.5 -2t7 -6.5t1.5 -43.5t-1 -76v-37q-124 20 -208 119.5t-84 228.5v0zM411 293q-5 0 -7.5 4t-3 11t-0.5 13
t0.5 13t0.5 9q-3 113 1 120q4 4 14.5 5.5t26.5 0t17 -1.5h113q3 0 10 1t13.5 1t13.5 -0.5t11.5 -2.5t5.5 -7q1 -8 1 -43v-65l-1 -31v-5v-5q0 -2 -0.5 -5t-0.5 -4l-2 -3q-1 -2 -2.5 -3t-4 -1.5t-5.5 -0.5h-44h-157v0zM567 30v121q0 4 -0.5 10.5t-1 11.5t0.5 10t4.5 8t8.5 3
q3 0 37 -0.5t36 3.5q36 10 54.5 40.5t18.5 70.5v118v15v16q0 5 -0.5 14.5t-2 15.5t-4.5 13.5t-7 14.5q-17 29 -45 39.5t-68 10.5q-1 0 -8.5 -1t-13 -0.5t-7.5 1.5q-2 3 -2.5 7t0 10.5t0.5 7.5v140q124 -20 207.5 -122t83.5 -230q0 -129 -83.5 -228.5t-207.5 -119.5v0z
M567 30z" />
    <glyph glyph-name="uniE628" unicode="&#xe628;" 
d="M930 226q-39 -92 -103 -155q-79 -78 -183 -109q-120 -36 -241 -6q-135 34 -227 139q-95 108 -109 255q0 1 -3 19v35q16 94 18 98q27 104 97 183t169 118t205 29q252 -26 368 -260q5 -10 14 -34q5 -15 -11 -15q-134 1 -154 1q-4 0 -9 4t-7 8q-10 22 -76 175q-2 4 -34 78
q-9 -11 -9 -12q-16 -37 -54 -125.5t-59 -136.5q0 -1 -13 -19q-89 213 -124 295q-1 0 -2.5 -0.5t-2.5 -0.5q-40 -97 -41 -100q-122 -295 -164 -397q-23 -56 -28 -69q-3 -10 3 -19q46 -73 79 -120q8 -12 23 -12q80 -1 254 -1h255q32 0 47 25q19 30 69 100q9 13 2 27
q-5 11 -3 15t15 4h13h15q19 1 11 -17zM785 506q-1 0 -18 -3q3 -12 8 -17.5t16 -5.5q18 1 138 0h5h6q1 0 4 1t3.5 3.5t0.5 6.5q0 15 -19 15h-72h-72zM601 524q-14 -22 -15 -23q-16 -38 -44.5 -108t-39.5 -96q-2 -3 -29 -66h-3h-2q-89 216 -123 298q-3 0 -5 1q-11 -20 -11 -21
q-37 -91 -111 -275q-6 -15 -3.5 -18t19.5 -3h479q12 0 14.5 3.5t-2.5 15.5q-87 212 -111 268q0 1 -13 24zM806 461h-18q0 -25 21 -25h65h64q5 1 11 4t6 6q2 9 -3 12t-15 3h-131zM954 418q-94 1 -141 0q-1 0 -4.5 -6t-2.5 -6q14 -11 19 -12q39 -1 118 0q1 0 17 3v18zM840 373
q-3 0 -5.5 -1.5t-6 -4t-4.5 -3.5q1 -1 4 -5t5 -6.5t5 -3.5q2 -1 21 -1q16 1 101 4v17q-18 4 -19 4q-62 1 -101 0zM933 288q-4 0 -8 1q-2 0 -11.5 -0.5t-12 -0.5t-7 0.5t-6.5 0.5q-7 0 -13 -1q-1 0 -17 -7q2 -2 5 -7t5.5 -8t4.5 -3q26 -2 61 1q7 0 11 14q1 2 -4 5.5t-8 4.5z
M939 330h-41h-39q-5 -1 -11 -3.5t-6 -5.5q-1 -17 17 -17q75 1 81 1q2 0 4.5 2t5.5 5.5t4 5.5q-1 1 -4 4.5t-5.5 5t-5.5 2.5zM939 330z" />
    <glyph glyph-name="uniE629" unicode="&#xe629;" 
d="M475 516q2 -2 5 -3t5 -1h2h52q6 0 10 4q2 2 2.5 5.5t1.5 5.5v2v265q-24 2 -40 2l-42 -2v-265l3 -11q0 -1 1 -2zM605 820v-317q0 -3 -7 -7l-13 -4h-48q-4 0 -7 -2q-2 -1 -2.5 -3t-1.5 -3v-1v-129l4 4h111q10 -1 15 3q3 2 4.5 5.5t1.5 6.5v3v301v36q95 -43 153.5 -130.5
t58.5 -194.5q0 -134 -89.5 -234.5t-222.5 -118.5v75v68v30h79q10 -1 15 4q3 2 4 4l2 4v1v6v127q-5 -5 -9 -8l-12 -3h-103q-5 -1 -8 -2l-4 -8v-123h-28v123q0 5 -4 8l-7 2h-104q-6 0 -11 3l-10 8v-127q0 -10 8 -15q3 -2 6.5 -3t4.5 -1h2h79v-173q-133 18 -222.5 118.5
t-89.5 234.5q0 107 58 194.5t154 130.5v-36v-301q1 -11 8 -15l13 -4h111l4 -3v129q-1 5 -4 7l-7 2h-48q-13 1 -17 4l-3 7v316q-154 -31 -254.5 -152t-100.5 -279q0 -89 35.5 -171t95.5 -141t143 -94t174 -35t174 35t143 94t95.5 141t35.5 171q0 158 -101 279t-255 153h1z
M604 820z" />
    <glyph glyph-name="uniE62A" unicode="&#xe62a;" 
d="M695 621h-151v-64h151v-68h-80h-71v-68v-67v-65h71h80v-74h-151v-64h151h71v64v74v62v3h-151v67h80h71v68v68v64h-71v0zM258 621v-64v-68v-68h71h80v-67h-151v-3v-62v-74v-64h71h151v64h-151v74h80h71v65v67v68h-71h-80v68h151v64h-151h-71v0zM512 834q-91 0 -174 -35.5
t-143 -95.5t-95.5 -143t-35.5 -174t35.5 -174t95.5 -143t143 -95.5t174 -35.5t174 35.5t143 95.5t95.5 143t35.5 174t-35.5 174t-95.5 143t-143 95.5t-174 35.5v0zM512 32q-96 0 -177.5 47.5t-129 129t-47.5 177.5t47.5 177.5t129 129t177.5 47.5t177.5 -47.5t129 -129
t47.5 -177.5t-47.5 -177.5t-129 -129t-177.5 -47.5v0zM512 32z" />
    <glyph glyph-name="uniE62B" unicode="&#xe62b;" 
d="M823 834h-623q-56 0 -96 -40t-40 -96v-623q0 -57 40 -97t96 -40h623q57 0 97 40t40 97v623q0 56 -40 96t-97 40zM341 643h85v43q0 18 12.5 30.5t30.5 12.5h86q17 0 30 -12.5t13 -30.5v-43h85v-86h-342v86zM617 342v-39h-59l-6 -12v-18h65v-39h-65v-56h-62v56h-64v39h64
v18l-5 12h-59v39h39l-62 117h66l44 -97h18l44 97h66l-63 -117h39zM769 43h-493q-9 0 -15 6.5t-6 15.5v557q0 9 6 15t15 6h43v-43h-21v-514h428v514h-21v43h43q8 0 14.5 -6t6.5 -15v-579z" />
    <glyph glyph-name="uniE62C" unicode="&#xe62c;" 
d="M512 273h-226v28h226v-28zM625 386h-339v-28h339v28zM960 698v-623q0 -57 -40 -97t-97 -40h-623q-56 0 -96 40t-40 97v623q0 56 40 96t96 40h623q57 0 97 -40t40 -96zM173 527h678v43q0 17 -12.5 29.5t-29.5 12.5h-594q-17 0 -29.5 -12.5t-12.5 -29.5v-43zM851 471h-678
v-269q0 -17 12.5 -29.5t29.5 -12.5h594q17 0 29.5 12.5t12.5 29.5v269z" />
    <glyph glyph-name="uniE62D" unicode="&#xe62d;" 
d="M823 834h-623q-56 0 -96 -40t-40 -96v-623q0 -57 40 -97t96 -40h623q57 0 97 40t40 97v623q0 56 -40 96t-97 40zM336 664q30 -58 45 -126h-101q-22 78 -48 126h104zM333 108h-108q53 103 68 244h93q-8 -149 -53 -244zM285 382q-17 66 -48 129h101q28 -48 48 -129h-101z
M799 125h-297q-98 -5 -93 88v431h383v-73h-265v-337q-2 -43 38 -41h234v-68z" />
    <glyph glyph-name="uniE62E" unicode="&#xe62e;" 
d="M318 579q-16 0 -28 -9.5t-12 -23.5t12 -23.5t28 -9.5q15 0 24 9t9 24t-9 24t-24 9v0zM591 386q-10 0 -18.5 -8.5t-8.5 -18.5t8.5 -18t18.5 -8q14 0 23.5 8t9.5 18.5t-9.5 18.5t-23.5 8v0zM960 698q0 56 -40 96t-97 40h-623q-56 0 -96 -40t-40 -96v-623q0 -57 40 -97
t96 -40h623q57 0 97 40t40 97v623v0zM404 239q-25 0 -93 14l-93 -47l27 80q-107 75 -107 180q0 95 78 161t188 66q99 0 175.5 -53.5t93.5 -134.5q-14 2 -26 2q-94 0 -160 -61.5t-66 -149.5q0 -27 8 -56q-14 -1 -25 -1v0zM797 146l20 -66l-73 40q-53 -14 -80 -14
q-95 0 -160.5 56.5t-65.5 137t65.5 137t160.5 56.5q91 0 158.5 -57t67.5 -137q0 -83 -93 -153v0zM737 386q-10 0 -18 -8.5t-8 -18.5t8 -18t18 -8q15 0 24.5 8t9.5 18.5t-9.5 18.5t-24.5 8v0zM504 513q15 0 24 9t9 24t-9 24t-24 9q-16 0 -28 -9.5t-12 -23.5t12 -23.5t28 -9.5
v0zM504 513z" />
    <glyph glyph-name="uniE62F" unicode="&#xe62f;" 
d="M757 562h-20v-512h-67v512h-112v-512h-67v512h-112v-512h-68v512h-42h-92v-534q0 -37 27 -63t65 -26h488q38 0 65 26t27 63v534q0 1 -11 1t-36.5 -0.5t-44.5 -0.5zM893 722h-201v55q0 22 -31 39.5t-59 17.5h-179q-27 0 -58 -17.5t-31 -39.5v-55h-201q-19 0 -32 -13
t-13 -31.5t13 -32t32 -13.5h760q19 0 32 13.5t13 32t-13 31.5t-32 13zM602 722h-179v22h179v-22zM602 722z" />
    <glyph glyph-name="uniE630" unicode="&#xe630;" 
d="M958 392v-1l-126 -104v-139q0 -7 -5 -12.5t-12 -5.5h-606q-7 0 -12 5.5t-5 12.5v413q0 7 5 12t12 5h105v0q15 27 32.5 50t31 36t27.5 24t19 14t8 4h-351q-7 0 -12 -5t-5 -13v-667q0 -7 5 -12t12 -5h861q7 0 12 5t5 12v371h-1zM958 392zM958 614l-273 219v-137
q-180 0 -278 -118v0q-24 -28 -42.5 -62t-27.5 -63t-14.5 -53.5t-6.5 -38.5l-1 -14q39 64 70 100t72.5 58.5t88 29.5t122.5 7h17v-156zM958 614z" />
    <glyph glyph-name="uniE631" unicode="&#xe631;" 
d="M451 48v224h7q11 3 35.5 1t56 -2t70.5 -8.5t78.5 -18.5t80 -32t74.5 -50t62.5 -71t43.5 -95q0 106 -16.5 194t-44.5 150.5t-68.5 110.5t-84.5 78t-96 49t-99.5 26t-98.5 7v222l-387 -392l387 -393v0zM451 48z" />
    <glyph glyph-name="uniE632" unicode="&#xe632;" 
d="M512 834q-91 0 -174 -35.5t-143 -95.5t-95.5 -143t-35.5 -174t35.5 -174t95.5 -143t143 -95.5t174 -35.5t174 35.5t143 95.5t95.5 143t35.5 174t-35.5 174t-95.5 143t-143 95.5t-174 35.5zM765 386q0 -103 -73 -175t-178 -72q-106 0 -181 72t-75 175t74 175t178 72
q78 0 141 -40.5t92 -108.5h-106q-20 31 -54 49t-72 18q-69 0 -117 -48t-48 -117t48.5 -117t117.5 -48q68 0 113 47q18 19 30 41h-198v82h308v-5z" />
    <glyph glyph-name="uniE633" unicode="&#xe633;" 
d="M959 20l-365 365l365 366l-82 82l-365 -366l-366 366l-82 -82l366 -366l-366 -365l82 -82l366 365l365 -365z" />
    <glyph glyph-name="uniE634" unicode="&#xe634;" 
d="M421 35l-357 344l89 93l262 -253l449 497l96 -86zM421 35z" />
    <glyph glyph-name="uniE635" unicode="&#xe635;" 
d="M960 603v39h-896v-39q9 0 15 -6t6 -15t-6 -15t-15 -6v-37q9 0 15 -6t6 -15t-6 -15t-15 -6v-37q9 0 15 -6t6 -15t-6 -15t-15 -6v-37q9 0 15 -6t6 -15t-6 -15t-15 -6v-37q9 0 15 -6t6 -15t-6 -15t-15 -6v-37q9 0 15 -6t6 -15t-6 -15t-15 -6v-40h896v40q-9 0 -15 6t-6 15
t6 15t15 6v37q-9 0 -15 6t-6 15t6 15t15 6v37q-9 0 -15 6t-6 15t6 15t15 6v37q-9 0 -15 6t-6 15t6 15t15 6v37q-9 0 -15 6t-6 15t6 15t15 6v37q-9 0 -15 6t-6 15t6 15t15 6z" />
    <glyph glyph-name="uniE636" unicode="&#xe636;" 
d="M512 386zM64 386q0 91 35.5 174t95.5 143t143 95.5t174 35.5t174 -35.5t143 -95.5t95.5 -143t35.5 -174t-35.5 -174t-95.5 -143t-143 -95.5t-174 -35.5t-174 35.5t-143 95.5t-95.5 143t-35.5 174z" />
    <glyph glyph-name="uniE637" unicode="&#xe637;" 
d="M702.5 -170q-110.5 0 -189 78t-78.5 189t78.5 189t189 78t189 -78t78.5 -189t-78.5 -189t-189 -78zM703 298q-83 0 -142 -59t-59 -142t59 -141.5t142 -58.5t141.5 58.5t58.5 141.5t-58.5 142t-141.5 59zM792 30h-138l25 -43q5 -8 -13 -18.5t-23 -2.5q-52 78 -52 87l1 1v1
v2q4 18 22 18h5h5h168q9 0 15.5 -6.5t6.5 -16t-6.5 -16t-15.5 -6.5zM813 137q-4 -18 -21 -18h-6h-5h-167q-10 0 -16.5 6.5t-6.5 16t6.5 16t16.5 6.5h138l-26 44q-5 7 13.5 17.5t22.5 2.5q52 -78 52 -86q0 -1 -0.5 -1.5t-0.5 -1.5v-2zM680 542q10 0 16.5 -6.5t6.5 -15.5
t-6.5 -15.5t-16.5 -6.5h-111q-9 0 -15.5 6.5t-6.5 15.5t6.5 15.5t15.5 6.5h111zM235 142h111q10 0 16.5 -6.5t6.5 -16t-6.5 -16t-16.5 -6.5h-111q-9 0 -15.5 6.5t-6.5 16t6.5 16t15.5 6.5zM458 387q9 0 15.5 -6.5t6.5 -16t-6.5 -16t-15.5 -6.5h-89v-89q0 -9 -6.5 -15.5
t-16 -6.5t-16 6.5t-6.5 15.5v89h-89q-9 0 -15.5 6.5t-6.5 16t6.5 16t15.5 6.5h89v89h-89q-9 0 -15.5 6.5t-6.5 15.5t6.5 15.5t15.5 6.5h22v45q0 9 6.5 15.5t16 6.5t16 -6.5t6.5 -15.5v-45h89v45q0 9 6.5 15.5t15.5 6.5t15.5 -6.5t6.5 -15.5v-45h23q9 0 15.5 -6.5t6.5 -15.5
t-6.5 -15.5t-15.5 -6.5h-89v-89h89zM792 654q0 18 -13 31t-32 13h-579q-18 0 -31 -13t-13 -31v-646q0 -18 13 -31t31 -13h253q18 -37 43 -67h-318q-37 0 -63 26t-26 63v690q0 37 26 63t63 26h623q37 0 63 -26t26 -63v-309q-32 18 -66 29v258z" />
    <glyph glyph-name="uniE638" unicode="&#xe638;" 
d="M227 369q-35 8 -25 41l24 90l30 -8l-5 -18l92 -24l10 37l-127 34l7 27l157 -42l-24 -91l-122 32l-10 -38q-5 -15 11 -19l73 -19q18 -7 24 9q1 3 5 11q3 9 5 13q15 -9 27 -16q-7 -17 -14 -32q-11 -22 -43 -13zM451 411q-11 11 -23 19q26 26 41 56l26 -13l-9 -18l28 -7
q1 6 5 18q1 3 2.5 8t1.5 6l30 -8q-6 -19 -10 -32l63 -17l-7 -27l-64 17l-7 -24l75 -21l-7 -27l-73 20q5 -36 62 -66q-18 -15 -24 -22q-54 34 -61 71q-23 -28 -90 -34q-1 2 -2 7q-8 17 -12 24q73 1 90 30l-75 20l7 27l80 -22q1 1 3 11q3 10 5 14l-38 10q-7 -10 -17 -20z
M710 325l-3 6q-12 23 -18 34l20 10l15 -25q23 22 44 64l25 -11q-5 -12 -13 -24l52 -14l-7 -26l-12 3q-18 -45 -41 -70q10 -19 28 -38q-10 -8 -22 -20q-18 21 -28 39q-19 -11 -47 -22l-11 24l-9 -7l-17 30q-20 -12 -51 -23q-4 19 -6 28q27 7 44 17l-16 29l21 12l16 -24
q9 8 18 21l19 -18l-5 -7q-7 -7 -18 -19q10 -17 18 -31q20 8 34 18q-5 20 -4 44l-10 -9l-2 17zM638 336l-10 22q20 12 39 27l16 -18q-12 -10 -35 -25q-6 -4 -10 -6zM643 395l7 25l35 -10v18v6l30 -5l-1 -27l29 -7l-7 -25zM762 301q15 17 27 47l-26 7l-1 -1q-4 -32 0 -53z
M512 599q52 0 97.5 -23.5t75.5 -63.5l27 -8q-31 52 -84 82.5t-116 30.5q-60 0 -113 -29l27 -7q41 18 86 18zM653 611l15 -12l5 18l16 10l-16 9l-5 19l-15 -13l-20 2l8 -17l-8 -18zM393 652l-15 10l-4 -19l-16 -12l18 -8l5 -18l14 14l19 1l-8 17l6 18zM537 678l-11 15l-9 -17
l-19 -7l14 -13v-19l17 9l19 -5l-3 19l12 15zM746 561l-16 11l-2 -19l-16 -11l18 -9l7 -18l13 14l19 -1l-9 17l5 18zM956 420l-811 217q-15 4 -28.5 -4t-17.5 -22l-58 -217q-4 -15 4 -28.5t23 -17.5l811 -217q15 -4 28.5 4t17.5 22l58 217q4 15 -4 28.5t-23 17.5zM962 370
l-53 -199q-3 -11 -13 -16.5t-21 -2.5l-793 212q-12 3 -17.5 13t-2.5 21l53 199q3 11 13 16.5t21 2.5l793 -212q12 -3 17.5 -13t2.5 -21zM512 720q115 0 205.5 -70t119.5 -179l20 -6q-28 119 -124 196.5t-221 77.5q-75 0 -142 -29.5t-116 -82.5l20 -5q47 46 108.5 72
t129.5 26zM598 187q-41 -18 -86 -18q-52 0 -97.5 23.5t-75.5 63.5l-27 8q31 -52 84 -82.5t116 -30.5q60 0 113 29zM397 148l-14 13l-5 -19l-17 -9l17 -10l5 -18l14 12l20 -2l-8 18l8 17zM512 91l11 -15l9 17l19 6l-14 13v19l-17 -9l-19 5l3 -18l-11 -16zM276 208l15 -12
l4 18l16 10l-17 10l-6 19l-14 -13l-19 2l8 -18l-6 -17zM512 48q-115 0 -205.5 70t-119.5 179l-20 6q28 -119 124 -196.5t221 -77.5q75 0 142 29.5t116 82.5l-20 5q-47 -46 -108.5 -72t-129.5 -26zM647 117l15 -11l4 19l15 11l-17 9l-5 18l-14 -14l-19 -1l8 -17l-6 -18z" />
    <glyph glyph-name="uniE639" unicode="&#xe639;" 
d="M512 834q-91 0 -174 -35.5t-143 -95.5t-95.5 -143t-35.5 -174t35.5 -174t95.5 -143t143 -95.5t174 -35.5t174 35.5t143 95.5t95.5 143t35.5 174t-35.5 174t-95.5 143t-143 95.5t-174 35.5zM282 475h-42v-66q20 10 39 15v-34q-20 -8 -39 -20v-94q0 -29 -19 -43
q-13 -9 -36 -9q-6 0 -17 1v34q6 1 9 1q17 0 23 5.5t6 18.5v64q-21 -8 -30 -9q-5 -2 -18 -3v37q17 2 28 6q6 2 20 9v87h-47v37h47v31h34v-31h42v-37zM503 480h-84v-52q37 0 46 -1q19 -2 29 -17q7 -10 7 -22q0 -19 -19 -42q-20 -23 -54 -52q23 -14 36 -21q15 -7 39 -13l-1 -35
q-34 9 -57 21q-18 9 -46 27q-28 -19 -49 -29q-21 -11 -51 -19v36q30 9 71 33q-37 34 -51 53q-6 8 -16 24h40q16 -20 30 -33q8 -8 26 -23q31 25 53 49q15 17 15 22q0 4 -4 6q-2 1 -15 1h-149v35h85v52h-85v35h85v29h35v-29h84v-35zM644 497h-47v-227h47v-34h-129v34h47v227
h-47v35h129v-35zM711 412h92q31 0 44 -11q13 -10 13 -32v-111q0 -14 -10 -23q-9 -9 -23 -9h-143v35h122q14 0 17 3.5t3 13.5v74q0 26 -23 26h-98q-21 0 -31 10q-10 9 -10 20q0 8 5 27l18 74h-28v34h204v-34h-142l-20 -78q-3 -11 -3 -12q0 -7 13 -7z" />
    <glyph glyph-name="uniE63A" unicode="&#xe63a;" 
d="M607 282h-174q-18 0 -23 -7q-3 -4 -3 -13v-28q0 -11 6 -15q4 -2 14 -2h185q18 0 18 14v34q0 8 -4 12q-5 5 -19 5zM512 834q-91 0 -174 -35.5t-143 -95.5t-95.5 -143t-35.5 -174t35.5 -174t95.5 -143t143 -95.5t174 -35.5t174 35.5t143 95.5t95.5 143t35.5 174t-35.5 174
t-95.5 143t-143 95.5t-174 35.5zM665 171q-13 -10 -32 -10h-224q-58 0 -58 61v62q0 24 18 40q15 13 38 14h215q63 0 63 -56v-69q0 -28 -20 -42zM353 461v56h138v29h56v-29h137v-56h-137v-39h137v-57h-331v57h138v39h-138zM783 211q0 -39 -20 -62q-25 -29 -70 -29h-20v57h19
q17 0 28 12q6 8 6 24v319q0 22 -9 30q-10 10 -35 10h-334q-14 0 -24 -8q-9 -8 -9 -24v-307q0 -39 -10 -59q-22 -46 -76 -54v57q29 9 29 39v333q0 37 24 60q21 20 63 20h338q51 0 77 -26q23 -24 23 -66v-326z" />
    <glyph glyph-name="uniE63B" unicode="&#xe63b;" 
d="M312 378q0 -12 4.5 -16.5t15.5 -4.5h157v50h-177v-29zM721 496q0 11 -6 16q-5 4 -17 4h-154v-53h177v33zM716 361q5 4 5 13v33h-177v-50h154q14 0 18 4zM316 511q-4 -4 -4 -19v-29h177v53h-155q-13 0 -18 -5zM512 834q-91 0 -174 -35.5t-143 -95.5t-95.5 -143t-35.5 -174
t35.5 -174t95.5 -143t143 -95.5t174 -35.5t174 35.5t143 95.5t95.5 143t35.5 174t-35.5 174t-95.5 143t-143 95.5t-174 35.5zM793 199h-249v-79h-55v79h-246v56h246v45h-146q-51 0 -63 7q-24 16 -24 50v159q0 57 64 57v57h56v-57h282v57h57v-57h6q21 0 36 -13q19 -14 19 -35
v-166q0 -59 -57 -59h-175v-45h249v-56z" />
    <glyph glyph-name="uniE63C" unicode="&#xe63c;" 
d="M320 434h400v-95h-400v95zM680 582h-325q-35 0 -35 -35v-57h400v53q0 39 -40 39zM512 834q-91 0 -174 -35.5t-143 -95.5t-95.5 -143t-35.5 -174t35.5 -174t95.5 -143t143 -95.5t174 -35.5t174 35.5t143 95.5t95.5 143t35.5 174t-35.5 174t-95.5 143t-143 95.5t-174 35.5z
M774 200q0 -30 -21 -51q-23 -22 -58 -22h-71v56h54q20 0 29 7q13 10 13 29v64h-400v-56q0 -45 -24 -72t-65 -29v56q15 1 23 9q10 10 10 37v326q0 36 19 58q22 26 61 26h346q42 0 64 -23q22 -24 22 -61z" />
    <glyph glyph-name="uniE63D" unicode="&#xe63d;" 
d="M669 363q10 0 17 6t7 14.5t-7 14.5t-17 6h-139v21l134 130q6 6 5.5 14.5t-8 14t-17.5 5t-17 -7.5l-122 -117l-114 117q-6 7 -16 7.5t-18 -4.5t-9 -13.5t6 -15.5l127 -131v-20h-125q-10 0 -17 -6t-7 -14.5t7 -14.5t17 -6h125v-34h-125q-10 0 -17 -5.5t-7 -14t7 -14.5
t17 -6h125v-107q0 -8 7 -14t17.5 -6t17.5 6t7 14v107h139q10 0 17 6t7 14.5t-7 14t-17 5.5h-139v34h139zM743 629h75v-75q0 -7 5.5 -11.5t14 -4.5t14 4.5t5.5 11.5v75h75q6 0 10.5 5.5t4.5 13.5t-4.5 14t-10.5 6h-75v74q0 7 -5.5 11.5t-14 4.5t-14 -4.5t-5.5 -11.5v-74h-75
q-6 0 -10.5 -6t-4.5 -14t4.5 -13.5t10.5 -5.5zM943 511q-1 9 -7.5 14.5t-15.5 5.5q-10 0 -16.5 -6.5t-6.5 -16.5q0 -5 2 -9q17 -56 17 -113q0 -108 -54.5 -201t-147.5 -147.5t-201 -54.5t-201 54.5t-147.5 147.5t-54.5 200.5t54.5 200.5t147.5 148t201 55q94 0 179 -44h1
q3 -1 7 -1q9 0 16 7t7 16q0 11 -8 18l-1 1q-1 0 -2 1l-4 2q-92 44 -195 44q-91 0 -174 -35.5t-143 -95t-95.5 -142.5t-35.5 -174t35.5 -174t95.5 -143t143 -95.5t174 -35.5t174 35.5t143 95.5t95.5 143t35.5 174q0 64 -18 125z" />
    <glyph glyph-name="uniE63E" unicode="&#xe63e;" 
d="M511 304q61 0 104 43t43 104t-43 104t-104 43t-104 -43t-43 -104t43 -104t104 -43zM511 535q35 0 59.5 -24.5t24.5 -59.5t-24.5 -59.5t-59.5 -24.5t-59.5 24.5t-24.5 59.5t24.5 59.5t59.5 24.5zM511 535zM872 -11q-95 80 -216 113h2q68 29 120.5 81.5t81.5 120.5
q29 70 29 147t-29 147q-29 68 -81.5 120.5t-120.5 81.5q-70 30 -147 30t-147 -30q-68 -29 -120.5 -81.5t-81.5 -120.5q-29 -70 -29 -147t29 -147q29 -68 81.5 -120.5t120.5 -81.5h2q-117 -32 -210 -107q-10 -8 -11 -21t7 -23.5t21 -11.5t23 7q67 54 148 83t167 29
q88 0 170.5 -30.5t150.5 -86.5q9 -7 20 -7q15 0 24 11q9 10 7.5 23t-11.5 21zM288 228q-44 44 -68 100q-24 59 -24 123t24 123q24 57 68 100.5t100 67.5q59 25 123 25t123 -25q56 -24 100 -67.5t67 -100.5q25 -59 25 -123t-25 -123q-23 -56 -67 -100t-100 -67
q-59 -25 -123 -25t-123 25q-56 23 -100 67zM288 228z" />
    <glyph glyph-name="uniE63F" unicode="&#xe63f;" 
d="M513 796q-127 0 -226 -78.5t-129 -198.5q-4 -1 -10.5 -2.5t-23 -9.5t-29.5 -19.5t-22.5 -33.5t-8.5 -50t13 -49t27 -31t32 -16.5t25.5 -7.5t10.5 -1q4 -1 7.5 -0.5t12.5 2.5t11 2q-25 62 -25 128q0 91 45 168t122 122t168 45t168 -45t122 -122t45 -168q0 -110 -64 -197
t-164 -121q-5 -1 -8.5 -0.5t-6.5 1.5h-3q-22 5 -50 -3q-10 -3 -15 -12.5t-4 -19.5q1 -26 23 -29q50 -8 61 15q1 1 2.5 5t3 6.5t3.5 5t5 3.5q76 26 135 82.5t88 131.5q4 1 11 2t25 8.5t32 18t25.5 31.5t12.5 47.5t-8.5 48t-23 32.5t-27.5 19t-24 10l-9 2q-30 121 -129 199.5
t-226 78.5v0zM513 796zM512 149q-119 0 -203.5 84.5t-84.5 204t84.5 204t204 84.5t204 -84.5t84.5 -204t-84.5 -204t-204.5 -84.5zM512 669q-96 0 -164 -68t-68 -164t68 -164t164 -68t164 68t68 164t-68 164t-164 68zM512 669zM516 242q-47 0 -87 23q-38 22 -61 60
q-8 12 4 19.5t20 -4.5q19 -32 51 -51q33 -19 72.5 -19t72.5 19q32 19 51 51q8 12 20 4.5t4 -19.5q-23 -38 -61 -60q-40 -23 -86 -23zM516 242z" />
    <glyph glyph-name="uniE640" unicode="&#xe640;" 
d="M847 61h-308v358h308v-358v0zM177 419h306v-358h-306v358v0zM120 583h363v-109h-363v109v0zM903 474h-364v109h364v-109v0zM282 777q47 0 95.5 -42t85.5 -96h-94q-53 0 -95 25.5t-42 68.5q0 44 50 44v0zM742 777q50 0 50 -45q0 -43 -41 -68t-94 -25h-94q38 55 85 96.5
t94 41.5v0zM959 583q0 23 -16.5 39t-39.5 16h-95q40 40 40 94q0 41 -26 70.5t-80 29.5q-36 0 -72.5 -17t-66.5 -45.5t-50.5 -53t-39.5 -52.5q-18 27 -39.5 52.5t-52 53.5t-67 45t-72.5 17q-54 0 -80 -29.5t-26 -70.5q0 -54 41 -94h-97q-23 0 -39.5 -16t-16.5 -39v-164h57
v-358q0 -23 16 -39t40 -16h670q23 0 39.5 16t16.5 39v358h56v164v0zM959 583z" />
    <glyph glyph-name="uniE641" unicode="&#xe641;" 
d="M512 833q92 0 175 -36t143 -96.5t94.5 -143.5t34.5 -175q-1 -91 -37 -173.5t-96.5 -141.5t-144 -94t-174.5 -34q-90 0 -172.5 36.5t-142 96.5t-94 143t-34 173.5t36.5 173.5t96 142.5t142.5 94.5t172.5 34zM137 385q1 -102 51.5 -188.5t137 -136.5t186.5 -49
q103 1 189.5 52t136 138t48.5 189q-1 101 -52 187t-138 135.5t-189 48.5q-100 -1 -186 -52t-135.5 -137.5t-48.5 -186.5zM137 385zM558 433h165q11 0 15 -3.5t3 -13.5v-30q0 -14 -2.5 -16.5t-16.5 -2.5h-147h-17v-22q0 -125 1 -145q0 -9 -3.5 -12.5t-12.5 -3.5q-2 0 -32 1
q-14 0 -16.5 2t-2.5 16v147v17h-21h-145q-9 -1 -13 2.5t-3 12.5v32q0 14 2.5 16.5t15.5 2.5h148h16v21v145q0 9 3.5 13t12.5 3h32q14 0 16 -2.5t2 -15.5v-148v-16zM558 433z" />
    <glyph glyph-name="uniE642" unicode="&#xe642;" 
d="M671 584q-118 0 -202 -84t-84 -202.5t84 -202t202.5 -83.5t202 83.5t83.5 202t-83.5 202.5t-202.5 84zM671 80q-90 0 -153.5 64t-63.5 154t63.5 153.5t153.5 63.5t154 -63.5t64 -153.5t-64 -154t-154 -64zM98 171q-14 0 -24 -10t-10 -24t10 -24t24 -10h266q-21 32 -34 68
h-232v0zM98 721h734q14 0 24.5 10t10.5 24t-10.5 24.5t-24.5 10.5h-734q-14 0 -24 -10.5t-10 -24.5t10 -24t24 -10zM98 309h209q1 35 9 68h-218q-14 0 -24 -10t-10 -24t10 -24t24 -10zM446 584h-348q-14 0 -24 -10.5t-10 -24.5t10 -24t24 -10h281q29 39 67 69zM772 331h-66
v92q0 14 -10.5 24t-24.5 10t-24 -10t-10 -24v-126q0 -14 10 -24t24 -10h101q14 0 24 10t10 24t-10 24t-24 10zM772 331z" />
  </font>
</defs>
</svg>
